<svg width="100" viewBox="0 0 52 26" xmlns="http://www.w3.org/2000/svg">
    <g fill="none" fill-rule="evenodd">
        <g fill="#9c69b1" fill-opacity="0.3">
			<g>
				<path d="M18.1,7.3c-0.9-0.9-2.6-0.3-2.6,1.1c-1-0.4-2,0.2-2.2,1.3L9.2,5.5C8.9,5.2,8.5,5.1,8.1,5.1C6.7,5.1,6,6.8,7,7.8l0.6,0.6
					c0.1,0.1,0.3,0.1,0.4,0S8.1,8,8,7.9L7.4,7.4C6.8,6.7,7.2,5.7,8.1,5.7c0.3,0,0.5,0.1,0.7,0.3c0.7,0.7,5.8,5.8,6.6,6.6
					c0.1,0.1,0.3,0.1,0.4,0c0.1-0.1,0.1-0.3,0-0.4l-1.6-1.6c-0.4-0.4-0.4-1,0-1.4s1-0.4,1.4,0c2.1,2.1-1.5-1.5,1.6,1.6
					c0.1,0.1,0.3,0.1,0.4,0c0.1-0.1,0.1-0.3,0-0.4l-1.3-1.3c-0.3-0.4-0.3-1,0-1.3c0.3-0.3,0.9-0.4,1.3,0c0.2,0.2,1.5,1.5,1.5,1.5
					c0.1,0.1,0.3,0.1,0.4,0s0.1-0.3,0-0.4C19.6,8.8,18.1,7.3,18.1,7.3z"/>
			</g>
		</g>
		<g fill="#9c69b1" fill-opacity="0.3">
			<g>
				<path d="M20.2,9.8c-0.1,0.1-0.1,0.3,0,0.4l1.6,1.6c0.7,0.7,1.1,1.5,1.2,2.5c0.2,1.1,0.9,1.6,1,1.7c0.3,0.3,0.3,0.8,0,1.1l-2.7,2.7
					c-0.1,0.1-0.1,0.3,0,0.4s0.3,0.1,0.4,0l2.7-2.7c0.5-0.5,0.5-1.4,0-2c-0.1-0.2-0.7-0.6-0.8-1.4c-0.2-1.1-0.6-2.1-1.4-2.8l-1.6-1.6
					C20.5,9.7,20.3,9.7,20.2,9.8z"/>
			</g>
		</g>
		<g fill="#9c69b1" fill-opacity="0.3">
			<g>
				<path d="M14,14.4c0.1-0.1,0.1-0.3,0-0.4c-0.3-0.3-4.6-4.6-5-5c-0.1-0.1-0.3-0.1-0.4,0s-0.1,0.3,0,0.4c0.4,0.4,2.2,2.2,2.5,2.5
					c-1.3,0.2-1.8,1.7-0.9,2.7l1.9,1.9c-1.9,0-3.4,0.6-3.4,0.6c-1.1,0.4-1.7,1.3-1.4,2.3c0.3,1,1,1,2.1,0.8c0.4-0.1,2.7-0.5,4.3,0
					c0.2,0.1,0.4,0.2,0.6,0.3c1.5,1,3.3,0.7,3.3,0.7l0.7,0.7c0.5,0.5,1.4,0.5,1.9,0l0.5-0.5c0.1-0.1,0.1-0.3,0-0.4s-0.3-0.1-0.4,0
					l-0.5,0.5c-0.3,0.3-0.8,0.3-1.1,0l-0.5-0.5c0.1,0,0.2-0.1,0.2-0.1c0.1-0.1,0.2-0.3,0.1-0.4c-0.1-0.1-0.3-0.2-0.4-0.1
					c-0.6,0.4-1,0.4-1.1,0.4c-1,0-1.8-0.2-2.4-0.6c-0.3-0.2-0.5-0.3-0.8-0.4c-1.4-0.5-3.2-0.3-4.6,0c-1.1,0.2-1.2,0.2-1.4-0.4
					c-0.1-0.2-0.2-1.1,1-1.5c0.1,0,1.8-0.7,4-0.6c0.3,0,0.4-0.3,0.2-0.5l-2.4-2.4c-0.4-0.4-0.4-1,0-1.4c0.4-0.4,1-0.4,1.4,0l1.6,1.6
					C13.7,14.5,13.9,14.5,14,14.4z"/>
			</g>
		</g>
		<g fill="#9c69b1" fill-opacity="0.3">
			<g>
				<path d="M32.1,16.9c0.1,0.1,0.3,0.1,0.4,0c0.1-0.1,0.1-0.3,0-0.4c0,0-1.4-1.4-1.5-1.5c-0.4-0.5-0.3-1,0-1.3c0.4-0.4,1-0.4,1.3,0
					l1.3,1.3c0.1,0.1,0.3,0.1,0.4,0c0.1-0.1,0.1-0.3,0-0.4c-3.1-3.1,0.4,0.4-1.6-1.6c-0.4-0.4-0.4-1,0-1.4c0.4-0.4,1-0.4,1.4,0
					l1.6,1.6c0.1,0.1,0.3,0.1,0.4,0c0.1-0.1,0.1-0.3,0-0.4c-0.7-0.7-5.8-5.8-6.6-6.6C29.1,5.9,29,5.6,29,5.4c0-0.9,1-1.3,1.7-0.6
					l0.6,0.6c0.1,0.1,0.3,0.1,0.4,0s0.1-0.3,0-0.4l-0.6-0.6c-1-1-2.7-0.3-2.7,1.1c0,0.4,0.2,0.8,0.5,1.1l4.1,4.1
					c-1,0.1-1.7,1.2-1.3,2.2c-1.4,0-2,1.7-1.1,2.6C30.5,15.4,32.1,16.9,32.1,16.9z"/>
			</g>
		</g>
		<g fill="#9c69b1" fill-opacity="0.3">
			<g>
				<path d="M33.1,18l1.6,1.6c0.8,0.8,1.8,1.3,2.8,1.4c0.8,0.1,1.2,0.7,1.4,0.8c0.5,0.5,1.4,0.5,2,0l2.7-2.7c0.1-0.1,0.1-0.3,0-0.4
					c-0.1-0.1-0.3-0.1-0.4,0l-2.7,2.7c-0.3,0.3-0.8,0.3-1.1,0c-0.1-0.1-0.7-0.9-1.7-1c-0.9-0.1-1.8-0.6-2.5-1.2l-1.6-1.6
					c-0.1-0.1-0.3-0.1-0.4,0C33,17.6,33,17.8,33.1,18z"/>
			</g>
		</g>
		<g fill="#9c69b1" fill-opacity="0.3">
			<g>
				<path d="M37.7,10.9L36,9.2c-0.4-0.4-0.4-1,0-1.4c0.4-0.4,1-0.4,1.4,0l2.4,2.4c0.2,0.2,0.5,0,0.5-0.2c-0.1-2.1,0.5-3.9,0.6-4
					c0.5-1.2,1.3-1.1,1.5-1C43,5.3,43,5.4,42.8,6.6c-0.2,1.4-0.4,3.2,0,4.6c0.1,0.3,0.2,0.5,0.4,0.8c0.4,0.5,0.6,1.4,0.6,2.4
					c0,0.1,0,0.5-0.4,1.1c-0.1,0.1,0,0.3,0.1,0.4c0.1,0.1,0.3,0,0.4-0.1c0-0.1,0.1-0.2,0.1-0.2l0.5,0.5c0.3,0.3,0.3,0.8,0,1.1
					l-0.5,0.5c-0.1,0.1-0.1,0.3,0,0.4c0.1,0.1,0.3,0.1,0.4,0l0.5-0.5c0.5-0.5,0.5-1.4,0-1.9L44.4,15c0,0,0.4-1.9-0.7-3.3
					c-0.2-0.2-0.3-0.4-0.3-0.6c-0.5-1.6-0.1-3.8,0-4.3c0.2-1.2,0.2-1.8-0.8-2.1c-1-0.3-1.9,0.2-2.3,1.4c0,0.1-0.6,1.5-0.6,3.4
					l-1.9-1.9c-0.9-0.9-2.5-0.4-2.7,0.9c-0.3-0.3-2.1-2.1-2.5-2.5c-0.1-0.1-0.3-0.1-0.4,0c-0.1,0.1-0.1,0.3,0,0.4c0.4,0.4,4.7,4.7,5,5
					c0.1,0.1,0.3,0.1,0.4,0C37.8,11.2,37.8,11,37.7,10.9z"/>
			</g>
		</g>
    </g>
</svg>
