<?xml version="1.0" encoding="utf-8"?>
<!-- Generator: Adobe Illustrator 23.0.6, SVG Export Plug-In . SVG Version: 6.00 Build 0)  -->
<svg version="1.1" id="Layer_1" xmlns="http://www.w3.org/2000/svg" xmlns:xlink="http://www.w3.org/1999/xlink" x="0px" y="0px"
	 viewBox="0 0 52 26" style="enable-background:new 0 0 52 26;" xml:space="preserve">
<g>
	<g>
		<path d="M18.1,5.3c-0.9-0.9-2.6-0.3-2.6,1.1c-1-0.4-2,0.2-2.2,1.3L9.2,3.5C8.9,3.2,8.5,3.1,8.1,3.1C6.7,3.1,6,4.8,7,5.8l0.6,0.6
			c0.1,0.1,0.3,0.1,0.4,0C8.1,6.2,8.1,6,8,5.9L7.4,5.4C6.8,4.7,7.2,3.7,8.1,3.7c0.3,0,0.5,0.1,0.7,0.3c0.7,0.7,5.8,5.8,6.6,6.6
			c0.1,0.1,0.3,0.1,0.4,0c0.1-0.1,0.1-0.3,0-0.4l-1.6-1.6c-0.4-0.4-0.4-1,0-1.4s1-0.4,1.4,0c2.1,2.1-1.5-1.5,1.6,1.6
			c0.1,0.1,0.3,0.1,0.4,0c0.1-0.1,0.1-0.3,0-0.4l-1.3-1.3c-0.3-0.4-0.3-1,0-1.3c0.3-0.3,0.9-0.4,1.3,0c0.2,0.2,1.5,1.5,1.5,1.5
			c0.1,0.1,0.3,0.1,0.4,0s0.1-0.3,0-0.4C19.6,6.8,18.1,5.3,18.1,5.3z"/>
	</g>
</g>
<g>
	<g>
		<path d="M20.2,7.8c-0.1,0.1-0.1,0.3,0,0.4l1.6,1.6c0.7,0.7,1.1,1.5,1.2,2.5c0.2,1.1,0.9,1.6,1,1.7c0.3,0.3,0.3,0.8,0,1.1l-2.7,2.7
			c-0.1,0.1-0.1,0.3,0,0.4s0.3,0.1,0.4,0l2.7-2.7c0.5-0.5,0.5-1.4,0-2c-0.1-0.2-0.7-0.6-0.8-1.4c-0.2-1.1-0.6-2.1-1.4-2.8l-1.6-1.6
			C20.5,7.7,20.3,7.7,20.2,7.8z"/>
	</g>
</g>
<g>
	<g>
		<path d="M14,12.4c0.1-0.1,0.1-0.3,0-0.4c-0.3-0.3-4.6-4.6-5-5c-0.1-0.1-0.3-0.1-0.4,0s-0.1,0.3,0,0.4c0.4,0.4,2.2,2.2,2.5,2.5
			c-1.3,0.2-1.8,1.7-0.9,2.7l1.9,1.9c-1.9,0-3.4,0.6-3.4,0.6c-1.1,0.4-1.7,1.3-1.4,2.3c0.3,1,1,1,2.1,0.8c0.4-0.1,2.7-0.5,4.3,0
			c0.2,0.1,0.4,0.2,0.6,0.3c1.5,1,3.3,0.7,3.3,0.7l0.7,0.7c0.5,0.5,1.4,0.5,1.9,0l0.5-0.5c0.1-0.1,0.1-0.3,0-0.4s-0.3-0.1-0.4,0
			l-0.5,0.5c-0.3,0.3-0.8,0.3-1.1,0l-0.5-0.5c0.1,0,0.2-0.1,0.2-0.1c0.1-0.1,0.2-0.3,0.1-0.4c-0.1-0.1-0.3-0.2-0.4-0.1
			c-0.6,0.4-1,0.4-1.1,0.4c-1,0-1.8-0.2-2.4-0.6c-0.3-0.2-0.5-0.3-0.8-0.4c-1.4-0.5-3.2-0.3-4.6,0c-1.1,0.2-1.2,0.2-1.4-0.4
			c-0.1-0.2-0.2-1.1,1-1.5c0.1,0,1.8-0.7,4-0.6c0.3,0,0.4-0.3,0.2-0.5l-2.4-2.4c-0.4-0.4-0.4-1,0-1.4c0.4-0.4,1-0.4,1.4,0l1.6,1.6
			C13.7,12.5,13.9,12.5,14,12.4z"/>
	</g>
</g>
<g>
	<g>
		<path d="M32.1,18.9c0.1,0.1,0.3,0.1,0.4,0c0.1-0.1,0.1-0.3,0-0.4c0,0-1.4-1.4-1.5-1.5c-0.4-0.5-0.3-1,0-1.3c0.4-0.4,1-0.4,1.3,0
			l1.3,1.3c0.1,0.1,0.3,0.1,0.4,0c0.1-0.1,0.1-0.3,0-0.4c-3.1-3.1,0.4,0.4-1.6-1.6c-0.4-0.4-0.4-1,0-1.4c0.4-0.4,1-0.4,1.4,0
			l1.6,1.6c0.1,0.1,0.3,0.1,0.4,0c0.1-0.1,0.1-0.3,0-0.4c-0.7-0.7-5.8-5.8-6.6-6.6C29.1,7.9,29,7.6,29,7.4c0-0.9,1-1.3,1.7-0.6
			l0.6,0.6c0.1,0.1,0.3,0.1,0.4,0s0.1-0.3,0-0.4l-0.6-0.6c-1-1-2.7-0.3-2.7,1.1c0,0.4,0.2,0.8,0.5,1.1l4.1,4.1
			c-1,0.1-1.7,1.2-1.3,2.2c-1.4,0-2,1.7-1.1,2.6C30.5,17.4,32.1,18.9,32.1,18.9z"/>
	</g>
</g>
<g>
	<g>
		<path d="M33.1,20l1.6,1.6c0.8,0.8,1.8,1.3,2.8,1.4c0.8,0.1,1.2,0.7,1.4,0.8c0.5,0.5,1.4,0.5,2,0l2.7-2.7c0.1-0.1,0.1-0.3,0-0.4
			c-0.1-0.1-0.3-0.1-0.4,0l-2.7,2.7c-0.3,0.3-0.8,0.3-1.1,0c-0.1-0.1-0.7-0.9-1.7-1c-0.9-0.1-1.8-0.6-2.5-1.2l-1.6-1.6
			c-0.1-0.1-0.3-0.1-0.4,0C33,19.6,33,19.8,33.1,20z"/>
	</g>
</g>
<g>
	<g>
		<path d="M37.7,12.9L36,11.2c-0.4-0.4-0.4-1,0-1.4c0.4-0.4,1-0.4,1.4,0l2.4,2.4c0.2,0.2,0.5,0,0.5-0.2c-0.1-2.1,0.5-3.9,0.6-4
			c0.5-1.2,1.3-1.1,1.5-1C43,7.3,43,7.4,42.8,8.6c-0.2,1.4-0.4,3.2,0,4.6c0.1,0.3,0.2,0.5,0.4,0.8c0.4,0.5,0.6,1.4,0.6,2.4
			c0,0.1,0,0.5-0.4,1.1c-0.1,0.1,0,0.3,0.1,0.4c0.1,0.1,0.3,0,0.4-0.1c0-0.1,0.1-0.2,0.1-0.2l0.5,0.5c0.3,0.3,0.3,0.8,0,1.1
			l-0.5,0.5c-0.1,0.1-0.1,0.3,0,0.4c0.1,0.1,0.3,0.1,0.4,0l0.5-0.5c0.5-0.5,0.5-1.4,0-1.9L44.4,17c0,0,0.4-1.9-0.7-3.3
			c-0.2-0.2-0.3-0.4-0.3-0.6c-0.5-1.6-0.1-3.8,0-4.3c0.2-1.2,0.2-1.8-0.8-2.1c-1-0.3-1.9,0.2-2.3,1.4c0,0.1-0.6,1.5-0.6,3.4
			l-1.9-1.9c-0.9-0.9-2.5-0.4-2.7,0.9c-0.3-0.3-2.1-2.1-2.5-2.5c-0.1-0.1-0.3-0.1-0.4,0c-0.1,0.1-0.1,0.3,0,0.4c0.4,0.4,4.7,4.7,5,5
			c0.1,0.1,0.3,0.1,0.4,0C37.8,13.2,37.8,13,37.7,12.9z"/>
	</g>
</g>
</svg>
