<?xml version="1.0" encoding="UTF-8" standalone="no"?>
<svg xmlns="http://www.w3.org/2000/svg" width="512" height="512" viewBox="0 0 512 512">
  <path d="M273 20c-11 0-21 9-23 21l-9 88h-8L39 163c-12 2-21 15-19 27l50 283c2 12 15 21 27 19l194-34c12-3 21-15 18-27l-13-73	l140 14c13 2 25-8 26-20l30-286c1-13-8-24-21-25L276 20H273z M273 36h1l196 21c4 0 6 3 6 7l-30 286c0 4-4 7-8 6l-144-15l-35-193 l-3-9l10-97C267 39 270 36 273 36z M320 142l-10 99l39 4c15 2 25 0 32-8c9-8 15-21 16-37c2-15-1-29-8-39c-6-9-15-13-30-15L320 142z M339 162l18 1c16 2 22 14 20 35c-3 22-11 32-27 31l-18-2L339 162z M204 253l17 98l-20 4c-2.3-13.4-4.5-26.8-6.8-40.3 c-18.4 3.7-36.8 7.4-55.3 11.1c2.3 12.7 4.7 25.4 7 38.2l-20 4l-18-98l19.4-3.7c2.7 13.5 5.5 27 8.2 40.5c18.3-3.9 36.7-7.9 55-11.8	c-2.3-12.6-4.7-25.3-7-37.9C190.4 255.6 197.2 254.3 204 253z"/>
</svg>
